<?xml version="1.0" encoding="UTF-8" standalone="no"?>
<!-- Created with Inkscape (http://www.inkscape.org/) -->

<svg
   width="512"
   height="512"
   viewBox="0 0 512 512"
   version="1.1"
   id="svg1"
   inkscape:version="1.4.2 (2aeb623e1d, 2025-05-12)"
   sodipodi:docname="fue_8.svg"
   xmlns:inkscape="http://www.inkscape.org/namespaces/inkscape"
   xmlns:sodipodi="http://sodipodi.sourceforge.net/DTD/sodipodi-0.dtd"
   xmlns="http://www.w3.org/2000/svg"
   xmlns:svg="http://www.w3.org/2000/svg">
  <sodipodi:namedview
     id="namedview1"
     pagecolor="#ffffff"
     bordercolor="#000000"
     borderopacity="0.25"
     inkscape:showpageshadow="2"
     inkscape:pageopacity="0.0"
     inkscape:pagecheckerboard="0"
     inkscape:deskcolor="#d1d1d1"
     inkscape:document-units="mm"
     inkscape:zoom="0.3535534"
     inkscape:cx="-248.90158"
     inkscape:cy="403.05085"
     inkscape:window-width="1469"
     inkscape:window-height="793"
     inkscape:window-x="26"
     inkscape:window-y="23"
     inkscape:window-maximized="0"
     inkscape:current-layer="layer1" />
  <defs
     id="defs1">
    <linearGradient
       id="swatch2"
       inkscape:swatch="solid">
      <stop
         style="stop-color:#4d4d4d;stop-opacity:0.31733379;"
         offset="0"
         id="stop2" />
    </linearGradient>
  </defs>
  <g
     inkscape:label="Layer 1"
     inkscape:groupmode="layer"
     id="layer1">
    <text
       xml:space="preserve"
       style="font-style:normal;font-variant:normal;font-weight:normal;font-stretch:normal;font-size:192px;font-family:Ubuntu;-inkscape-font-specification:'Ubuntu, Normal';font-variant-ligatures:normal;font-variant-caps:normal;font-variant-numeric:normal;font-variant-east-asian:normal;text-align:start;writing-mode:lr-tb;direction:ltr;text-anchor:start;fill:#8800aa;stroke-width:40"
       x="17.706362"
       y="438.14331"
       id="text2"><tspan
         sodipodi:role="line"
         id="tspan2"
         x="17.706362"
         y="438.14331"
         style="font-style:normal;font-variant:normal;font-weight:normal;font-stretch:normal;font-size:426.667px;font-family:Ubuntu;-inkscape-font-specification:'Ubuntu, Normal';font-variant-ligatures:normal;font-variant-caps:normal;font-variant-numeric:normal;font-variant-east-asian:normal;fill:#8800aa">53</tspan></text>
    <path
       d="m 256.00107,0 a 259.14482,151.18111 0 0 0 -242.270604,97.8418 259.14482,151.18111 0 0 0 -1.280849,1.6875 15.782756,14.271496 0 0 0 -0.194395,0.31445 15.782756,14.271496 0 0 0 -1.924514,6.83008 15.782756,14.271496 0 0 0 15.782742,14.27148 15.782756,14.271496 0 0 0 14.221101,-8.15039 15.782756,14.271496 0 0 1 -0.453589,0.85743 229.88653,132.28346 0 0 1 216.120108,-87.19532 229.88653,132.28346 0 0 1 216.02941,87.05078 15.782756,14.271496 0 0 1 -0.42119,-0.8164 15.782756,14.271496 0 0 0 14.27726,8.2539 15.782756,14.271496 0 0 0 15.78274,-14.27148 15.782756,14.271496 0 0 0 -1.59836,-6.19336 259.14482,151.18111 0 0 0 -2.4213,-3.27734 A 259.14482,151.18111 0 0 0 256.00107,0 Z"
       style="fill:#8800aa;stroke-width:53.9858"
       id="path6" />
    <ellipse
       style="fill:#ff0000;stroke-width:44.4154"
       id="path1-7"
       cx="-826.03418"
       cy="-146.81889"
       rx="226.77165"
       ry="151.18111" />
    <ellipse
       style="fill:#d4ff2a;stroke-width:39.778"
       id="path1-3-5"
       cx="-826.03418"
       cy="-146.81889"
       rx="207.87401"
       ry="132.28346" />
    <rect
       style="fill:#00ff00;stroke-width:43.1019"
       id="rect1-9"
       width="605.93158"
       height="239.39452"
       x="-1129"
       y="-184.61417" />
    <circle
       style="fill:#ff00ff;stroke-width:33.5805"
       id="path2-6"
       cx="-1030.9917"
       cy="-193.94962"
       r="9.335433" />
    <circle
       style="fill:#ff00ff;stroke-width:33.5805"
       id="path2-4-2"
       cx="-621.07166"
       cy="-193.94962"
       r="9.335433" />
  </g>
</svg>
