<?xml version="1.0" encoding="UTF-8" standalone="no"?>
<!-- Created with Inkscape (http://www.inkscape.org/) -->

<svg
   width="512"
   height="512"
   viewBox="0 0 512 512"
   version="1.1"
   id="svg1"
   inkscape:version="1.4.2 (2aeb623e1d, 2025-05-12)"
   sodipodi:docname="koto_8.svg"
   xmlns:inkscape="http://www.inkscape.org/namespaces/inkscape"
   xmlns:sodipodi="http://sodipodi.sourceforge.net/DTD/sodipodi-0.dtd"
   xmlns="http://www.w3.org/2000/svg"
   xmlns:svg="http://www.w3.org/2000/svg">
  <sodipodi:namedview
     id="namedview1"
     pagecolor="#ffffff"
     bordercolor="#000000"
     borderopacity="0.25"
     inkscape:showpageshadow="2"
     inkscape:pageopacity="0.0"
     inkscape:pagecheckerboard="0"
     inkscape:deskcolor="#d1d1d1"
     inkscape:document-units="mm"
     inkscape:zoom="1"
     inkscape:cx="279.5"
     inkscape:cy="253.5"
     inkscape:window-width="1511"
     inkscape:window-height="985"
     inkscape:window-x="26"
     inkscape:window-y="23"
     inkscape:window-maximized="0"
     inkscape:current-layer="layer1"
     showgrid="false" />
  <defs
     id="defs1">
    <linearGradient
       id="swatch2"
       inkscape:swatch="solid">
      <stop
         style="stop-color:#4d4d4d;stop-opacity:0.31733379;"
         offset="0"
         id="stop2" />
    </linearGradient>
  </defs>
  <g
     inkscape:label="Layer 1"
     inkscape:groupmode="layer"
     id="layer1">
    <text
       xml:space="preserve"
       style="font-style:normal;font-variant:normal;font-weight:normal;font-stretch:normal;font-size:373.333px;font-family:Ubuntu;-inkscape-font-specification:'Ubuntu, Normal';font-variant-ligatures:normal;font-variant-caps:normal;font-variant-numeric:normal;font-variant-east-asian:normal;text-align:start;writing-mode:lr-tb;direction:ltr;text-anchor:start;fill:#8800aa;stroke-width:40"
       x="48.053455"
       y="366.3671"
       id="text2"><tspan
         sodipodi:role="line"
         id="tspan2"
         x="48.053455"
         y="366.3671"
         style="font-style:normal;font-variant:normal;font-weight:normal;font-stretch:normal;font-size:373.333px;font-family:Ubuntu;-inkscape-font-specification:'Ubuntu, Normal';font-variant-ligatures:normal;font-variant-caps:normal;font-variant-numeric:normal;font-variant-east-asian:normal;fill:#8800aa">23</tspan></text>
    <text
       xml:space="preserve"
       style="font-style:normal;font-variant:normal;font-weight:normal;font-stretch:normal;font-size:266.667px;font-family:Ubuntu;-inkscape-font-specification:'Ubuntu, Normal';font-variant-ligatures:normal;font-variant-caps:normal;font-variant-numeric:normal;font-variant-east-asian:normal;text-align:start;writing-mode:lr-tb;direction:ltr;text-anchor:start;fill:#8800aa;stroke-width:32.0082"
       x="222.92126"
       y="638.79211"
       id="text2-3"
       transform="scale(1.2496787,0.80020569)"><tspan
         sodipodi:role="line"
         id="tspan2-5"
         x="222.92126"
         y="638.79211"
         style="font-style:normal;font-variant:normal;font-weight:normal;font-stretch:normal;font-size:266.667px;font-family:Ubuntu;-inkscape-font-specification:'Ubuntu, Normal';font-variant-ligatures:normal;font-variant-caps:normal;font-variant-numeric:normal;font-variant-east-asian:normal;stroke-width:32.0082;fill:#8800aa">x</tspan></text>
    <path
       d="M 256.00099,0 A 239.21061,141.73179 0 0 0 32.366583,91.726365 239.21061,141.73179 0 0 0 31.18426,93.30839 a 14.568698,13.37948 0 0 0 -0.179446,0.294796 14.568698,13.37948 0 0 0 -1.776471,6.403174 14.568698,13.37948 0 0 0 14.568683,13.37947 14.568698,13.37948 0 0 0 13.127169,-7.64097 14.568698,13.37948 0 0 1 -0.418698,0.80384 212.20295,124.01531 0 0 1 199.495493,-81.745322 212.20295,124.01531 0 0 1 199.41176,81.609822 14.568698,13.37948 0 0 1 -0.38878,-0.76538 14.568698,13.37948 0 0 0 13.17901,7.73801 14.568698,13.37948 0 0 0 14.56868,-13.37947 14.568698,13.37948 0 0 0 -1.47541,-5.806255 239.21061,141.73179 0 0 0 -2.23504,-3.072492 A 239.21061,141.73179 0 0 0 256.00099,0 Z"
       style="fill:#8800aa;stroke-width:50.2208"
       id="path6" />
  </g>
</svg>
